<svg xmlns="http://www.w3.org/2000/svg" viewBox="0 0 512 512">
  <defs>
    <linearGradient id="globeGradient" x1="0" x2="0" y1="0" y2="1">
      <stop offset="0%" stop-color="#4facfe" />
      <stop offset="100%" stop-color="#00f2fe" />
    </linearGradient>
  </defs>
  <circle cx="256" cy="256" r="240" fill="url(#globeGradient)" stroke="#0b3d91" stroke-width="16" />
  <path d="M96 256h320M256 96v320" stroke="#0b3d91" stroke-width="16" stroke-linecap="round" />
  <path d="M256 16c-53.6 55.4-88 133.4-88 224s34.4 168.6 88 224c53.6-55.4 88-133.4 88-224S309.6 71.4 256 16z" fill="none" stroke="#0b3d91" stroke-width="16" />
  <path d="M64 184c32 24 96 24 128 0s96-24 128 0 96 24 128 0" fill="none" stroke="#0b3d91" stroke-width="16" stroke-linecap="round" />
  <path d="M64 328c32-24 96-24 128 0s96 24 128 0 96-24 128 0" fill="none" stroke="#0b3d91" stroke-width="16" stroke-linecap="round" />
</svg>
